<mxfile host="app.diagrams.net" modified="2024-05-02T02:22:49.369Z" agent="Mozilla/5.0 (Windows NT 10.0; Win64; x64) AppleWebKit/537.36 (KHTML, like Gecko) Chrome/124.0.0.0 Safari/537.36 Edg/124.0.0.0" etag="iSEBpR98VUoQHK_A6a6m" version="24.3.1" type="device">
  <diagram id="R2lEEEUBdFMjLlhIrx00" name="Page-1">
    <mxGraphModel dx="1426" dy="785" grid="1" gridSize="10" guides="1" tooltips="1" connect="1" arrows="1" fold="1" page="1" pageScale="1" pageWidth="850" pageHeight="1100" math="0" shadow="0" extFonts="Permanent Marker^https://fonts.googleapis.com/css?family=Permanent+Marker">
      <root>
        <mxCell id="0" />
        <mxCell id="1" parent="0" />
        <mxCell id="4F_KIkv0A0P5-cEVGPwJ-1" value="주유소" style="rounded=0;whiteSpace=wrap;html=1;" vertex="1" parent="1">
          <mxGeometry x="365" y="150" width="120" height="60" as="geometry" />
        </mxCell>
        <mxCell id="4F_KIkv0A0P5-cEVGPwJ-2" value="공급" style="rhombus;whiteSpace=wrap;html=1;" vertex="1" parent="1">
          <mxGeometry x="210" y="140" width="120" height="80" as="geometry" />
        </mxCell>
        <mxCell id="4F_KIkv0A0P5-cEVGPwJ-3" value="연락처" style="ellipse;whiteSpace=wrap;html=1;" vertex="1" parent="1">
          <mxGeometry x="485" y="40" width="120" height="80" as="geometry" />
        </mxCell>
        <mxCell id="4F_KIkv0A0P5-cEVGPwJ-4" value="이름" style="ellipse;whiteSpace=wrap;html=1;" vertex="1" parent="1">
          <mxGeometry x="365" y="10" width="120" height="80" as="geometry" />
        </mxCell>
        <mxCell id="4F_KIkv0A0P5-cEVGPwJ-5" value="&lt;u&gt;소유자번호&lt;/u&gt;" style="ellipse;whiteSpace=wrap;html=1;" vertex="1" parent="1">
          <mxGeometry x="230" y="40" width="120" height="80" as="geometry" />
        </mxCell>
        <mxCell id="4F_KIkv0A0P5-cEVGPwJ-6" value="공급업자" style="rounded=0;whiteSpace=wrap;html=1;" vertex="1" parent="1">
          <mxGeometry x="210" y="270" width="120" height="60" as="geometry" />
        </mxCell>
        <mxCell id="4F_KIkv0A0P5-cEVGPwJ-7" value="&lt;u&gt;사원번호&lt;/u&gt;" style="ellipse;whiteSpace=wrap;html=1;" vertex="1" parent="1">
          <mxGeometry x="30" y="90" width="120" height="80" as="geometry" />
        </mxCell>
        <mxCell id="4F_KIkv0A0P5-cEVGPwJ-8" value="정유사" style="ellipse;whiteSpace=wrap;html=1;" vertex="1" parent="1">
          <mxGeometry x="30" y="180" width="120" height="80" as="geometry" />
        </mxCell>
        <mxCell id="4F_KIkv0A0P5-cEVGPwJ-9" value="이름" style="ellipse;whiteSpace=wrap;html=1;" vertex="1" parent="1">
          <mxGeometry x="30" y="270" width="120" height="80" as="geometry" />
        </mxCell>
        <mxCell id="4F_KIkv0A0P5-cEVGPwJ-10" value="연락처" style="ellipse;whiteSpace=wrap;html=1;" vertex="1" parent="1">
          <mxGeometry x="30" y="360" width="120" height="80" as="geometry" />
        </mxCell>
        <mxCell id="4F_KIkv0A0P5-cEVGPwJ-11" value="차량번호" style="ellipse;whiteSpace=wrap;html=1;" vertex="1" parent="1">
          <mxGeometry x="30" y="450" width="120" height="80" as="geometry" />
        </mxCell>
        <mxCell id="4F_KIkv0A0P5-cEVGPwJ-12" value="공급량" style="ellipse;whiteSpace=wrap;html=1;" vertex="1" parent="1">
          <mxGeometry x="160" y="450" width="120" height="80" as="geometry" />
        </mxCell>
        <mxCell id="4F_KIkv0A0P5-cEVGPwJ-13" value="계약기" style="ellipse;whiteSpace=wrap;html=1;" vertex="1" parent="1">
          <mxGeometry x="290" y="450" width="120" height="80" as="geometry" />
        </mxCell>
        <mxCell id="4F_KIkv0A0P5-cEVGPwJ-14" value="" style="endArrow=none;html=1;rounded=0;entryX=0.5;entryY=1;entryDx=0;entryDy=0;" edge="1" parent="1" source="4F_KIkv0A0P5-cEVGPwJ-6" target="4F_KIkv0A0P5-cEVGPwJ-2">
          <mxGeometry width="50" height="50" relative="1" as="geometry">
            <mxPoint x="400" y="380" as="sourcePoint" />
            <mxPoint x="450" y="330" as="targetPoint" />
          </mxGeometry>
        </mxCell>
        <mxCell id="4F_KIkv0A0P5-cEVGPwJ-15" value="" style="endArrow=none;html=1;rounded=0;entryX=1;entryY=0.5;entryDx=0;entryDy=0;" edge="1" parent="1" source="4F_KIkv0A0P5-cEVGPwJ-1" target="4F_KIkv0A0P5-cEVGPwJ-2">
          <mxGeometry width="50" height="50" relative="1" as="geometry">
            <mxPoint x="280" y="280" as="sourcePoint" />
            <mxPoint x="280" y="230" as="targetPoint" />
          </mxGeometry>
        </mxCell>
        <mxCell id="4F_KIkv0A0P5-cEVGPwJ-16" value="" style="endArrow=none;html=1;rounded=0;entryX=1;entryY=1;entryDx=0;entryDy=0;" edge="1" parent="1" source="4F_KIkv0A0P5-cEVGPwJ-1" target="4F_KIkv0A0P5-cEVGPwJ-5">
          <mxGeometry width="50" height="50" relative="1" as="geometry">
            <mxPoint x="375" y="190" as="sourcePoint" />
            <mxPoint x="340" y="190" as="targetPoint" />
          </mxGeometry>
        </mxCell>
        <mxCell id="4F_KIkv0A0P5-cEVGPwJ-18" value="" style="endArrow=none;html=1;rounded=0;entryX=0.5;entryY=1;entryDx=0;entryDy=0;exitX=0.5;exitY=0;exitDx=0;exitDy=0;" edge="1" parent="1" source="4F_KIkv0A0P5-cEVGPwJ-1" target="4F_KIkv0A0P5-cEVGPwJ-4">
          <mxGeometry width="50" height="50" relative="1" as="geometry">
            <mxPoint x="396" y="160" as="sourcePoint" />
            <mxPoint x="342" y="118" as="targetPoint" />
          </mxGeometry>
        </mxCell>
        <mxCell id="4F_KIkv0A0P5-cEVGPwJ-19" value="" style="endArrow=none;html=1;rounded=0;entryX=0;entryY=1;entryDx=0;entryDy=0;exitX=0.75;exitY=0;exitDx=0;exitDy=0;" edge="1" parent="1" source="4F_KIkv0A0P5-cEVGPwJ-1" target="4F_KIkv0A0P5-cEVGPwJ-3">
          <mxGeometry width="50" height="50" relative="1" as="geometry">
            <mxPoint x="435" y="160" as="sourcePoint" />
            <mxPoint x="435" y="100" as="targetPoint" />
          </mxGeometry>
        </mxCell>
        <mxCell id="4F_KIkv0A0P5-cEVGPwJ-20" value="" style="endArrow=none;html=1;rounded=0;entryX=0.092;entryY=0.033;entryDx=0;entryDy=0;entryPerimeter=0;" edge="1" parent="1" source="4F_KIkv0A0P5-cEVGPwJ-7" target="4F_KIkv0A0P5-cEVGPwJ-6">
          <mxGeometry width="50" height="50" relative="1" as="geometry">
            <mxPoint x="465" y="160" as="sourcePoint" />
            <mxPoint x="513" y="118" as="targetPoint" />
          </mxGeometry>
        </mxCell>
        <mxCell id="4F_KIkv0A0P5-cEVGPwJ-21" value="" style="endArrow=none;html=1;rounded=0;entryX=0;entryY=0.25;entryDx=0;entryDy=0;" edge="1" parent="1" source="4F_KIkv0A0P5-cEVGPwJ-8" target="4F_KIkv0A0P5-cEVGPwJ-6">
          <mxGeometry width="50" height="50" relative="1" as="geometry">
            <mxPoint x="132" y="174" as="sourcePoint" />
            <mxPoint x="231" y="282" as="targetPoint" />
          </mxGeometry>
        </mxCell>
        <mxCell id="4F_KIkv0A0P5-cEVGPwJ-22" value="" style="endArrow=none;html=1;rounded=0;exitX=1;exitY=0.5;exitDx=0;exitDy=0;" edge="1" parent="1" source="4F_KIkv0A0P5-cEVGPwJ-9">
          <mxGeometry width="50" height="50" relative="1" as="geometry">
            <mxPoint x="147" y="255" as="sourcePoint" />
            <mxPoint x="210" y="300" as="targetPoint" />
          </mxGeometry>
        </mxCell>
        <mxCell id="4F_KIkv0A0P5-cEVGPwJ-23" value="" style="endArrow=none;html=1;rounded=0;exitX=0.992;exitY=0.425;exitDx=0;exitDy=0;exitPerimeter=0;entryX=0.15;entryY=1.017;entryDx=0;entryDy=0;entryPerimeter=0;" edge="1" parent="1" source="4F_KIkv0A0P5-cEVGPwJ-10" target="4F_KIkv0A0P5-cEVGPwJ-6">
          <mxGeometry width="50" height="50" relative="1" as="geometry">
            <mxPoint x="160" y="320" as="sourcePoint" />
            <mxPoint x="210" y="320" as="targetPoint" />
          </mxGeometry>
        </mxCell>
        <mxCell id="4F_KIkv0A0P5-cEVGPwJ-24" value="" style="endArrow=none;html=1;rounded=0;" edge="1" parent="1" source="4F_KIkv0A0P5-cEVGPwJ-11">
          <mxGeometry width="50" height="50" relative="1" as="geometry">
            <mxPoint x="159" y="404" as="sourcePoint" />
            <mxPoint x="260" y="330" as="targetPoint" />
          </mxGeometry>
        </mxCell>
        <mxCell id="4F_KIkv0A0P5-cEVGPwJ-25" value="" style="endArrow=none;html=1;rounded=0;entryX=0.625;entryY=1;entryDx=0;entryDy=0;entryPerimeter=0;exitX=0.5;exitY=0;exitDx=0;exitDy=0;" edge="1" parent="1" source="4F_KIkv0A0P5-cEVGPwJ-12" target="4F_KIkv0A0P5-cEVGPwJ-6">
          <mxGeometry width="50" height="50" relative="1" as="geometry">
            <mxPoint x="133" y="467" as="sourcePoint" />
            <mxPoint x="263" y="338" as="targetPoint" />
          </mxGeometry>
        </mxCell>
        <mxCell id="4F_KIkv0A0P5-cEVGPwJ-26" value="" style="endArrow=none;html=1;rounded=0;exitX=0.4;exitY=0.025;exitDx=0;exitDy=0;exitPerimeter=0;" edge="1" parent="1" source="4F_KIkv0A0P5-cEVGPwJ-13">
          <mxGeometry width="50" height="50" relative="1" as="geometry">
            <mxPoint x="230" y="460" as="sourcePoint" />
            <mxPoint x="300" y="330" as="targetPoint" />
          </mxGeometry>
        </mxCell>
        <mxCell id="4F_KIkv0A0P5-cEVGPwJ-27" value="주유" style="rhombus;whiteSpace=wrap;html=1;" vertex="1" parent="1">
          <mxGeometry x="520" y="140" width="120" height="80" as="geometry" />
        </mxCell>
        <mxCell id="4F_KIkv0A0P5-cEVGPwJ-28" value="고객" style="rounded=0;whiteSpace=wrap;html=1;" vertex="1" parent="1">
          <mxGeometry x="520" y="270" width="120" height="60" as="geometry" />
        </mxCell>
        <mxCell id="4F_KIkv0A0P5-cEVGPwJ-29" value="&lt;u&gt;고객번호&lt;/u&gt;" style="ellipse;whiteSpace=wrap;html=1;" vertex="1" parent="1">
          <mxGeometry x="670" y="70" width="120" height="80" as="geometry" />
        </mxCell>
        <mxCell id="4F_KIkv0A0P5-cEVGPwJ-30" value="날짜" style="ellipse;whiteSpace=wrap;html=1;" vertex="1" parent="1">
          <mxGeometry x="670" y="160" width="120" height="80" as="geometry" />
        </mxCell>
        <mxCell id="4F_KIkv0A0P5-cEVGPwJ-31" value="주유시간" style="ellipse;whiteSpace=wrap;html=1;" vertex="1" parent="1">
          <mxGeometry x="670" y="250" width="120" height="80" as="geometry" />
        </mxCell>
        <mxCell id="4F_KIkv0A0P5-cEVGPwJ-32" value="주유가격" style="ellipse;whiteSpace=wrap;html=1;" vertex="1" parent="1">
          <mxGeometry x="670" y="340" width="120" height="80" as="geometry" />
        </mxCell>
        <mxCell id="4F_KIkv0A0P5-cEVGPwJ-33" value="결제방법" style="ellipse;whiteSpace=wrap;html=1;" vertex="1" parent="1">
          <mxGeometry x="670" y="430" width="120" height="80" as="geometry" />
        </mxCell>
        <mxCell id="4F_KIkv0A0P5-cEVGPwJ-34" value="" style="endArrow=none;html=1;rounded=0;exitX=1;exitY=0.5;exitDx=0;exitDy=0;" edge="1" parent="1" source="4F_KIkv0A0P5-cEVGPwJ-1" target="4F_KIkv0A0P5-cEVGPwJ-27">
          <mxGeometry width="50" height="50" relative="1" as="geometry">
            <mxPoint x="132" y="174" as="sourcePoint" />
            <mxPoint x="231" y="282" as="targetPoint" />
          </mxGeometry>
        </mxCell>
        <mxCell id="4F_KIkv0A0P5-cEVGPwJ-35" value="" style="endArrow=none;html=1;rounded=0;exitX=0.5;exitY=1;exitDx=0;exitDy=0;entryX=0.5;entryY=0;entryDx=0;entryDy=0;" edge="1" parent="1" source="4F_KIkv0A0P5-cEVGPwJ-27" target="4F_KIkv0A0P5-cEVGPwJ-28">
          <mxGeometry width="50" height="50" relative="1" as="geometry">
            <mxPoint x="495" y="190" as="sourcePoint" />
            <mxPoint x="530" y="190" as="targetPoint" />
          </mxGeometry>
        </mxCell>
        <mxCell id="4F_KIkv0A0P5-cEVGPwJ-36" value="" style="endArrow=none;html=1;rounded=0;exitX=0.067;exitY=0.788;exitDx=0;exitDy=0;entryX=0.825;entryY=0.05;entryDx=0;entryDy=0;exitPerimeter=0;entryPerimeter=0;" edge="1" parent="1" source="4F_KIkv0A0P5-cEVGPwJ-29" target="4F_KIkv0A0P5-cEVGPwJ-28">
          <mxGeometry width="50" height="50" relative="1" as="geometry">
            <mxPoint x="590" y="230" as="sourcePoint" />
            <mxPoint x="590" y="280" as="targetPoint" />
          </mxGeometry>
        </mxCell>
        <mxCell id="4F_KIkv0A0P5-cEVGPwJ-37" value="" style="endArrow=none;html=1;rounded=0;exitX=0;exitY=1;exitDx=0;exitDy=0;entryX=1;entryY=0;entryDx=0;entryDy=0;" edge="1" parent="1" source="4F_KIkv0A0P5-cEVGPwJ-30" target="4F_KIkv0A0P5-cEVGPwJ-28">
          <mxGeometry width="50" height="50" relative="1" as="geometry">
            <mxPoint x="688" y="143" as="sourcePoint" />
            <mxPoint x="630" y="276" as="targetPoint" />
          </mxGeometry>
        </mxCell>
        <mxCell id="4F_KIkv0A0P5-cEVGPwJ-38" value="" style="endArrow=none;html=1;rounded=0;exitX=0;exitY=0.5;exitDx=0;exitDy=0;entryX=1;entryY=0.5;entryDx=0;entryDy=0;" edge="1" parent="1" source="4F_KIkv0A0P5-cEVGPwJ-31" target="4F_KIkv0A0P5-cEVGPwJ-28">
          <mxGeometry width="50" height="50" relative="1" as="geometry">
            <mxPoint x="698" y="238" as="sourcePoint" />
            <mxPoint x="650" y="280" as="targetPoint" />
          </mxGeometry>
        </mxCell>
        <mxCell id="4F_KIkv0A0P5-cEVGPwJ-39" value="" style="endArrow=none;html=1;rounded=0;entryX=1;entryY=0.75;entryDx=0;entryDy=0;exitX=0;exitY=0;exitDx=0;exitDy=0;" edge="1" parent="1" source="4F_KIkv0A0P5-cEVGPwJ-32" target="4F_KIkv0A0P5-cEVGPwJ-28">
          <mxGeometry width="50" height="50" relative="1" as="geometry">
            <mxPoint x="670" y="360" as="sourcePoint" />
            <mxPoint x="650" y="310" as="targetPoint" />
          </mxGeometry>
        </mxCell>
        <mxCell id="4F_KIkv0A0P5-cEVGPwJ-40" value="" style="endArrow=none;html=1;rounded=0;entryX=0.825;entryY=1.033;entryDx=0;entryDy=0;entryPerimeter=0;exitX=0;exitY=0;exitDx=0;exitDy=0;" edge="1" parent="1" source="4F_KIkv0A0P5-cEVGPwJ-33" target="4F_KIkv0A0P5-cEVGPwJ-28">
          <mxGeometry width="50" height="50" relative="1" as="geometry">
            <mxPoint x="698" y="362" as="sourcePoint" />
            <mxPoint x="650" y="325" as="targetPoint" />
          </mxGeometry>
        </mxCell>
        <mxCell id="4F_KIkv0A0P5-cEVGPwJ-41" value="회원" style="rounded=0;whiteSpace=wrap;html=1;" vertex="1" parent="1">
          <mxGeometry x="520" y="450" width="120" height="60" as="geometry" />
        </mxCell>
        <mxCell id="4F_KIkv0A0P5-cEVGPwJ-42" value="이름" style="ellipse;whiteSpace=wrap;html=1;" vertex="1" parent="1">
          <mxGeometry x="420" y="600" width="120" height="80" as="geometry" />
        </mxCell>
        <mxCell id="4F_KIkv0A0P5-cEVGPwJ-43" value="연락처" style="ellipse;whiteSpace=wrap;html=1;" vertex="1" parent="1">
          <mxGeometry x="550" y="600" width="120" height="80" as="geometry" />
        </mxCell>
        <mxCell id="4F_KIkv0A0P5-cEVGPwJ-45" value="포인트" style="ellipse;whiteSpace=wrap;html=1;" vertex="1" parent="1">
          <mxGeometry x="680" y="590" width="120" height="80" as="geometry" />
        </mxCell>
        <mxCell id="4F_KIkv0A0P5-cEVGPwJ-46" value="" style="endArrow=none;html=1;rounded=0;entryX=0.25;entryY=1;entryDx=0;entryDy=0;exitX=0.5;exitY=0;exitDx=0;exitDy=0;" edge="1" parent="1" source="4F_KIkv0A0P5-cEVGPwJ-42" target="4F_KIkv0A0P5-cEVGPwJ-41">
          <mxGeometry width="50" height="50" relative="1" as="geometry">
            <mxPoint x="400" y="380" as="sourcePoint" />
            <mxPoint x="450" y="330" as="targetPoint" />
          </mxGeometry>
        </mxCell>
        <mxCell id="4F_KIkv0A0P5-cEVGPwJ-47" value="" style="endArrow=none;html=1;rounded=0;entryX=0.5;entryY=1;entryDx=0;entryDy=0;exitX=0.358;exitY=0.05;exitDx=0;exitDy=0;exitPerimeter=0;" edge="1" parent="1" source="4F_KIkv0A0P5-cEVGPwJ-43" target="4F_KIkv0A0P5-cEVGPwJ-41">
          <mxGeometry width="50" height="50" relative="1" as="geometry">
            <mxPoint x="490" y="550" as="sourcePoint" />
            <mxPoint x="560" y="490" as="targetPoint" />
          </mxGeometry>
        </mxCell>
        <mxCell id="4F_KIkv0A0P5-cEVGPwJ-48" value="" style="endArrow=none;html=1;rounded=0;entryX=0.85;entryY=1.017;entryDx=0;entryDy=0;exitX=0;exitY=0;exitDx=0;exitDy=0;entryPerimeter=0;" edge="1" parent="1" source="4F_KIkv0A0P5-cEVGPwJ-45" target="4F_KIkv0A0P5-cEVGPwJ-41">
          <mxGeometry width="50" height="50" relative="1" as="geometry">
            <mxPoint x="500" y="560" as="sourcePoint" />
            <mxPoint x="570" y="500" as="targetPoint" />
          </mxGeometry>
        </mxCell>
        <mxCell id="4F_KIkv0A0P5-cEVGPwJ-49" value="" style="endArrow=none;html=1;rounded=0;exitX=0.5;exitY=1;exitDx=0;exitDy=0;" edge="1" parent="1" source="4F_KIkv0A0P5-cEVGPwJ-28" target="4F_KIkv0A0P5-cEVGPwJ-41">
          <mxGeometry width="50" height="50" relative="1" as="geometry">
            <mxPoint x="590" y="230" as="sourcePoint" />
            <mxPoint x="590" y="280" as="targetPoint" />
          </mxGeometry>
        </mxCell>
        <mxCell id="4F_KIkv0A0P5-cEVGPwJ-50" value="가입" style="rhombus;whiteSpace=wrap;html=1;" vertex="1" parent="1">
          <mxGeometry x="520" y="350" width="120" height="80" as="geometry" />
        </mxCell>
        <mxCell id="4F_KIkv0A0P5-cEVGPwJ-52" value="&lt;u&gt;고객번호&lt;/u&gt;" style="ellipse;whiteSpace=wrap;html=1;" vertex="1" parent="1">
          <mxGeometry x="320" y="540" width="120" height="80" as="geometry" />
        </mxCell>
        <mxCell id="4F_KIkv0A0P5-cEVGPwJ-53" value="" style="endArrow=none;html=1;rounded=0;exitX=1;exitY=0;exitDx=0;exitDy=0;entryX=-0.008;entryY=0.633;entryDx=0;entryDy=0;entryPerimeter=0;" edge="1" parent="1" source="4F_KIkv0A0P5-cEVGPwJ-52" target="4F_KIkv0A0P5-cEVGPwJ-41">
          <mxGeometry width="50" height="50" relative="1" as="geometry">
            <mxPoint x="688" y="143" as="sourcePoint" />
            <mxPoint x="629" y="283" as="targetPoint" />
          </mxGeometry>
        </mxCell>
        <mxCell id="4F_KIkv0A0P5-cEVGPwJ-54" value="100" style="ellipse;whiteSpace=wrap;html=1;" vertex="1" parent="1">
          <mxGeometry x="620" y="710" width="90" height="60" as="geometry" />
        </mxCell>
        <mxCell id="4F_KIkv0A0P5-cEVGPwJ-55" value="2000" style="ellipse;whiteSpace=wrap;html=1;" vertex="1" parent="1">
          <mxGeometry x="670" y="790" width="90" height="60" as="geometry" />
        </mxCell>
        <mxCell id="4F_KIkv0A0P5-cEVGPwJ-56" value="10000" style="ellipse;whiteSpace=wrap;html=1;" vertex="1" parent="1">
          <mxGeometry x="750" y="720" width="90" height="60" as="geometry" />
        </mxCell>
        <mxCell id="4F_KIkv0A0P5-cEVGPwJ-58" value="" style="endArrow=none;html=1;rounded=0;entryX=0.5;entryY=0;entryDx=0;entryDy=0;exitX=0;exitY=1;exitDx=0;exitDy=0;" edge="1" parent="1">
          <mxGeometry width="50" height="50" relative="1" as="geometry">
            <mxPoint x="698" y="658" as="sourcePoint" />
            <mxPoint x="665" y="710" as="targetPoint" />
          </mxGeometry>
        </mxCell>
        <mxCell id="4F_KIkv0A0P5-cEVGPwJ-59" value="" style="endArrow=none;html=1;rounded=0;entryX=0.689;entryY=0;entryDx=0;entryDy=0;entryPerimeter=0;" edge="1" parent="1" source="4F_KIkv0A0P5-cEVGPwJ-45" target="4F_KIkv0A0P5-cEVGPwJ-55">
          <mxGeometry width="50" height="50" relative="1" as="geometry">
            <mxPoint x="708" y="668" as="sourcePoint" />
            <mxPoint x="675" y="720" as="targetPoint" />
          </mxGeometry>
        </mxCell>
        <mxCell id="4F_KIkv0A0P5-cEVGPwJ-60" value="" style="endArrow=none;html=1;rounded=0;exitX=1;exitY=1;exitDx=0;exitDy=0;" edge="1" parent="1" source="4F_KIkv0A0P5-cEVGPwJ-45" target="4F_KIkv0A0P5-cEVGPwJ-56">
          <mxGeometry width="50" height="50" relative="1" as="geometry">
            <mxPoint x="748" y="680" as="sourcePoint" />
            <mxPoint x="742" y="800" as="targetPoint" />
          </mxGeometry>
        </mxCell>
      </root>
    </mxGraphModel>
  </diagram>
</mxfile>
